<svg width="32" height="32" viewBox="0 0 32 32" fill="none" xmlns="http://www.w3.org/2000/svg">
<path fill-rule="evenodd" clip-rule="evenodd" d="M27.144 2C27.617 2 28 2.38 28 2.85V28.15C28 28.62 27.617 29 27.144 29H4.856C4.74398 29.0004 4.63298 28.9787 4.52934 28.9362C4.4257 28.8937 4.33144 28.8312 4.25196 28.7523C4.17247 28.6734 4.10931 28.5795 4.06608 28.4762C4.02285 28.3729 4.00039 28.262 4 28.15V2.85C4 2.38 4.383 2 4.856 2H27.144ZM26.287 3.701H5.712V27.3H26.287V3.701ZM12.862 6.765V8.465H11.957V12.874C11.957 15.039 13.824 16.939 15.95 16.939C18.07 16.939 19.932 15.039 19.932 12.874V8.466H19.027V6.765H22.549V8.465H21.644V12.874C21.644 16 19.036 18.64 15.95 18.64C12.857 18.64 10.245 16 10.245 12.874V8.466H9.34V6.765H12.862Z" fill="#92F5A2"/>
</svg>
