<svg width="32" height="32" viewBox="0 0 32 32" fill="none" xmlns="http://www.w3.org/2000/svg">
<g clip-path="url(#clip0_494_96)">
<path d="M8.83683 7.28195C8.37533 6.82008 7.62658 6.82008 7.16508 7.28195C5.45158 8.99545 4.6094 11.3825 4.85415 13.8313C4.91521 14.4414 5.42915 14.8961 6.02933 14.8961C6.06877 14.8961 6.10852 14.8941 6.14796 14.8902C6.79783 14.8252 7.2719 14.2455 7.2069 13.596C7.03271 11.8557 7.62702 10.1635 8.83683 8.95364C9.29871 8.4922 9.29871 7.74339 8.83683 7.28195Z" fill="#92F5A2"/>
<path d="M13.5173 0C6.06381 0 0 6.06381 0 13.5173C0 20.9707 6.06381 27.0345 13.5173 27.0345C20.9707 27.0345 27.0345 20.9707 27.0345 13.5173C27.0345 6.06381 20.9706 0 13.5173 0ZM13.5173 24.6699C7.3675 24.6699 2.36456 19.667 2.36456 13.5173C2.36456 7.3675 7.3675 2.36456 13.5173 2.36456C19.6666 2.36456 24.6699 7.3675 24.6699 13.5173C24.6699 19.667 19.667 24.6699 13.5173 24.6699Z" fill="#92F5A2"/>
<path d="M31.6523 29.9825L23.0611 21.3913C22.5992 20.9295 21.8512 20.9295 21.3894 21.3913C20.9275 21.8528 20.9275 22.6016 21.3894 23.0631L29.9806 31.6542C30.2115 31.8851 30.5138 32.0006 30.8164 32.0006C31.1191 32.0006 31.4214 31.8851 31.6523 31.6542C32.1141 31.1927 32.1141 30.444 31.6523 29.9825Z" fill="#92F5A2"/>
</g>
<defs>
<clipPath id="clip0_494_96">
<rect width="32" height="32" fill="white"/>
</clipPath>
</defs>
</svg>
